
<svg width="130" height="54" viewBox="0 0 130 54" fill="none" xmlns="http://www.w3.org/2000/svg">
<path d="M50.5504 27.455C51.8108 24.3787 52.9431 22.755 53.9899 22.5201C54.3024 22.4248 54.6378 22.4359 54.9433 22.552C55.2487 22.668 55.5071 22.8823 55.6776 23.1611C56.2331 24.037 54.4172 29.0787 53.9258 30.1681C53.2635 31.6208 51.0845 33.8426 49.9735 31.9199C49.5035 31.1081 49.589 29.7836 50.5504 27.455ZM24.2524 36.0002C23.6114 37.4529 21.4111 39.6748 20.3001 37.7521C19.8301 36.9616 19.9156 35.6158 20.8769 33.3086C22.1587 30.2322 23.291 28.5873 24.3164 28.3736C24.6266 28.2763 24.9603 28.2844 25.2656 28.3964C25.571 28.5085 25.8306 28.7183 26.0041 28.9932C26.5596 29.8904 24.7436 34.9108 24.2524 36.0002ZM29.2941 36.748C28.9308 36.5343 29.294 35.5517 29.4863 34.6117C30.0845 32.4753 31.3021 27.925 31.409 27.3697C31.409 27.2201 32.349 24.8701 30.7467 24.8701C27.9481 24.8701 27.7345 26.3228 27.6277 26.4938C25.9052 25.7678 23.9782 25.6902 22.203 26.2753C20.4277 26.8605 18.9246 28.0689 17.9715 29.6767C17.5656 30.2536 14.2757 34.9749 15.4721 39.4184C15.7187 40.3151 16.298 41.0838 17.0919 41.5681C17.8859 42.0524 18.8345 42.2157 19.7446 42.0247C20.6858 41.9022 21.5878 41.5724 22.3858 41.0588C23.1837 40.5454 23.8578 39.8609 24.3591 39.0552C24.3591 39.4611 25.9187 40.4866 27.9269 40.1662C28.5677 40.1662 34.7417 39.0125 37.4762 28.63C37.0062 31.1295 41.7487 33.9281 39.9329 36.1925C39.4201 36.8121 37.7966 36.6198 38.8648 35.1671C39.4629 34.3126 37.0917 33.3085 36.3439 34.5476C36.092 34.985 36.0032 35.4974 36.0932 35.994C36.1832 36.4906 36.4461 36.9393 36.8352 37.2607C38.7579 38.7347 42.6246 38.4998 45.3805 33.9281C45.6817 34.7316 46.2546 35.4043 46.9999 35.8297C47.7452 36.2549 48.6158 36.4061 49.461 36.2567C50.402 36.1342 51.304 35.8043 52.102 35.2908C52.8999 34.7772 53.5739 34.0929 54.0753 33.2872C53.9686 33.4794 54.7376 33.9281 54.8444 33.9922C55.2749 34.2012 55.7368 34.3384 56.2117 34.398C57.1462 34.5234 58.0973 34.398 58.9675 34.0349C59.4671 33.856 59.9303 33.5883 60.3348 33.2445C60.8846 32.7833 61.3793 32.2599 61.8089 31.6849C62.2744 31.2165 62.5744 30.6089 62.6634 29.9545C62.6634 29.3563 61.5524 29.4632 61.1893 29.8263C60.8261 30.1895 59.6297 31.2149 59.0529 30.9159C58.6897 30.7022 59.053 29.7196 59.2452 28.7796C59.8434 26.6432 61.0611 22.0929 61.1679 21.516C61.1679 21.3664 62.1079 18.9952 60.5056 19.038C57.6217 19.038 57.4934 20.4692 57.3866 20.6402C55.6641 19.9142 53.7371 19.8368 51.962 20.4218C50.1867 21.007 48.6835 22.2153 47.7304 23.8233C46.2019 25.965 45.2593 28.4688 44.9959 31.0867C44.8983 31.4698 44.7625 31.8419 44.5901 32.1977C44.4728 32.4073 44.3293 32.6012 44.1628 32.7745C43.7569 31.3645 42.1546 29.6554 41.3642 27.4764C41.1247 26.9086 41.0268 26.291 41.0789 25.677C41.131 25.063 41.3316 24.4709 41.6632 23.9515C42.0479 23.1824 42.7956 22.2211 40.5738 22.2638C39.889 22.2931 39.2197 22.4777 38.6164 22.8033C38.0133 23.129 37.4919 23.5873 37.0915 24.1438C36.0912 25.3323 35.3621 26.7248 34.9553 28.2242C33.0112 35.5945 30.0204 37.0045 29.3581 36.6412" fill="#392820"/>
<path d="M98.6389 14.1884C99.0422 14.4341 99.5154 14.5393 99.9848 14.4875C100.408 14.483 100.823 14.3756 101.196 14.1746C101.568 13.9736 101.885 13.6851 102.121 13.3338C102.365 12.9987 102.54 12.6183 102.635 12.2148C102.731 11.8113 102.745 11.3928 102.677 10.9839C102.674 10.7499 102.617 10.5197 102.509 10.312C102.401 10.1042 102.247 9.92458 102.057 9.78754C101.585 9.51461 101.04 9.39516 100.498 9.44572C100.105 9.4449 99.7203 9.55211 99.3848 9.7556C99.0494 9.95909 98.7767 10.251 98.5962 10.5994C98.1285 11.2722 97.9233 12.0928 98.0193 12.9066C98.0341 13.1616 98.1073 13.4098 98.2332 13.6321C98.3591 13.8544 98.5345 14.0447 98.7458 14.1884" fill="#392820"/>
<path d="M117.182 24.7419C118.848 21.9433 119.767 21.0247 120.814 20.9606C121.861 20.8964 122.352 21.1314 122.373 21.7937C121.829 24.1221 120.921 26.35 119.682 28.3948C118.848 29.7195 116.819 31.044 116.007 29.0144C115.665 28.1813 116.007 26.8781 117.182 24.7419ZM66.2524 28.2881C65.8563 28.8605 65.7037 29.5667 65.8278 30.2517C65.952 30.9366 66.3429 31.5442 66.9145 31.9412C69.4994 33.9493 74.5198 33.8639 78.1515 28.0744C79.1537 26.1481 79.9899 24.1398 80.6511 22.0714C80.6864 21.9759 80.7507 21.8936 80.835 21.8363C80.9192 21.7788 81.0191 21.7491 81.1211 21.751C81.4842 21.751 81.9969 21.751 82.4883 21.58C82.5827 21.558 82.6812 21.5604 82.7745 21.5865C82.8679 21.6126 82.9531 21.6619 83.0224 21.7296C84.0905 23.0541 84.9451 24.165 83.8983 28.2668C83.1079 31.3644 85.0306 31.8985 86.7182 31.8558C90.5422 31.8558 93.8535 26.0236 93.7039 26.5577C93.2885 27.7143 93.0297 28.9214 92.9349 30.1467C93.1699 32.283 96.8871 33.2657 101.138 26.7072C100.879 27.8554 100.976 29.0551 101.416 30.1467C101.826 30.938 102.467 31.586 103.253 32.0053C103.858 32.3216 104.537 32.4691 105.219 32.4326C107.394 32.2277 109.446 31.329 111.072 29.8689V30.1467C111.131 30.4484 111.224 30.7422 111.35 31.0226C111.652 31.6663 112.133 32.2098 112.735 32.5884C113.337 32.9671 114.035 33.1651 114.747 33.1589C115.576 33.2491 116.415 33.1413 117.195 32.8441C117.975 32.5471 118.674 32.0692 119.233 31.4499C119.314 31.8952 119.492 32.3171 119.754 32.6863C120.016 33.0554 120.356 33.3626 120.75 33.5861C121.248 33.8354 121.794 33.9738 122.351 33.9922C122.908 34.0106 123.462 33.9086 123.976 33.693C124.908 33.3028 125.756 32.7371 126.475 32.0267C126.98 31.6306 127.347 31.0846 127.522 30.4671C127.522 29.8903 126.347 29.9758 126.112 30.1467C125.877 30.3176 124.381 31.3003 123.976 30.9158C123.57 30.5313 124.339 29.0572 124.702 28.2454C125.578 26.1091 127.543 21.8364 127.714 21.3237C127.714 21.1741 128.782 19.1874 127.415 19.0592C125.001 18.6961 124.446 19.4437 124.296 19.5933C123.28 18.781 122.042 18.2968 120.744 18.2051C119.447 18.1136 118.152 18.419 117.032 19.0806C116.24 19.5503 115.52 20.1333 114.896 20.811C113.258 22.5708 112.044 24.6828 111.35 26.9849C111.36 27.07 111.36 27.1562 111.35 27.2413C110.866 27.7786 110.33 28.2652 109.748 28.694C109.093 29.1988 108.307 29.503 107.483 29.5699C103.552 29.2922 107.163 19.5078 109.256 19.5078C110.794 19.5078 109.555 20.8323 109.641 21.6441C109.726 22.4559 112.162 22.8192 112.803 20.341C113.358 18.2047 111.756 17.2861 109.854 17.3075C108.924 17.3235 108.008 17.5421 107.171 17.948C106.333 18.3537 105.594 18.9371 105.005 19.6574C104.022 20.7896 99.3866 26.579 98.4038 26.6003C98.3601 26.6078 98.3152 26.6047 98.2729 26.5912C98.2307 26.5778 98.1922 26.5544 98.1608 26.5229C98.1293 26.4916 98.1061 26.4532 98.0925 26.4109C98.0791 26.3686 98.0759 26.3237 98.0834 26.2799C98.0834 25.7672 100.391 18.5465 100.562 17.991C100.968 16.5169 100.156 16.752 98.233 16.752C96.9938 16.752 96.2035 18.8883 96.0966 19.3155C94.6013 24.7631 88.9186 28.5231 88.94 27.4548C89.2773 26.2314 89.3314 24.9473 89.0981 23.6998C88.8649 22.4524 88.3506 21.2745 87.5941 20.2555C87.5791 20.2257 87.5712 20.1928 87.5712 20.1595C87.5712 20.126 87.5791 20.0931 87.5941 20.0633H87.7223C90.1881 19.0513 92.2837 17.3062 93.7253 15.0643C96.9511 9.95848 95.8617 -1.68442 80.587 0.323708C80.587 0.323708 72.1912 1.15688 68.3031 7.48038C64.821 12.7785 65.4832 21.281 70.4394 21.281C70.9539 21.3168 71.4691 21.2218 71.9369 21.0047C72.4047 20.7877 72.81 20.4559 73.115 20.0401C73.4199 19.6241 73.6147 19.1378 73.681 18.6263C73.7474 18.1149 73.6832 17.5951 73.4944 17.1151C73.0886 15.7906 71.1872 16.1965 69.4568 16.4529C68.5168 16.581 68.2818 15.3847 68.3459 14.6585C68.5537 12.1231 69.7322 9.76592 71.6358 8.07855C72.9974 6.86525 74.5492 5.8837 76.2289 5.17313C76.8915 4.88792 77.569 4.63831 78.2583 4.42541C84.1759 2.5668 88.641 4.42541 90.35 6.56172C91.76 8.29214 91.8453 12.7144 88.3631 15.9402C86.2269 17.9057 81.5697 18.8457 81.9542 17.7561C82.3387 16.6665 83.2146 13.4834 84.0905 10.5994C84.3896 9.50988 83.5779 9.44574 82.6379 9.48846C81.0783 9.48846 77.9807 14.1243 76.827 18.7174C73.2594 32.9666 70.3113 31.2362 69.649 30.4885C69.3713 29.9971 69.649 29.9544 69.9053 29.2922C70.5249 27.9677 67.769 26.814 66.5086 28.4589" fill="#392820"/>
<path d="M130 44.7806C129.78 44.0039 129.388 43.287 128.851 42.6839C128.315 42.0807 127.648 41.607 126.902 41.2984C122.95 39.333 117.844 37.3248 94.7294 37.1967H94.0458C72.4262 37.1967 54.6521 40.572 23.355 47.4937L21.6887 47.857C20.1992 48.1709 18.6819 48.3353 17.1597 48.3482C14.5454 48.3828 11.9799 47.6392 9.78941 46.2119C7.90802 44.9075 6.48142 43.0476 5.70907 40.8925C4.49152 37.0832 4.5893 32.9753 5.98676 29.2282C7.62705 24.544 10.471 20.3739 14.233 17.1367C17.4325 14.3663 21.4765 12.7622 25.705 12.5863H25.9614C26.5293 12.6076 27.0878 12.7381 27.6063 12.9708C27.8346 13.1486 27.9862 13.4071 28.03 13.6932C28.0736 13.9792 28.0061 14.2711 27.8412 14.5089C27.0081 16.1753 26.8159 17.3502 27.2645 18.0767C27.7132 18.803 28.0977 19.0167 29.4008 19.0167H29.6785C30.149 19.0744 30.6264 19.0311 31.0789 18.8896C31.5313 18.7482 31.9483 18.5119 32.3022 18.1965C32.656 17.881 32.9385 17.4938 33.1307 17.0605C33.3231 16.6273 33.4207 16.158 33.4171 15.684C33.6209 14.8546 33.5168 13.9793 33.1238 13.2209C32.7309 12.4625 32.0759 11.8726 31.2808 11.5608C29.3761 10.6771 27.2908 10.2527 25.1922 10.3218C22.0136 10.3761 18.8826 11.1043 16.0061 12.4581C13.3406 13.6498 10.8816 15.258 8.72125 17.2222C1.43641 23.866 -1.96032 36.5771 1.1587 44.9943C2.07096 47.5416 3.75964 49.7384 5.98676 51.275C8.69399 53 11.8575 53.8709 15.0661 53.7746C17.4403 53.7698 19.806 53.4902 22.116 52.9414C28.7812 51.4673 34.2076 50.1427 38.9929 48.9678C45.9573 47.2801 51.9817 45.8274 59.2025 44.5243C71.1676 42.1268 83.32 40.7828 95.5199 40.508C97.0152 40.508 98.4893 40.508 99.942 40.508C114.683 40.508 125.108 42.6443 125.578 44.5243C125.578 44.866 125.578 45.1866 124.98 45.4643C124.104 46.0197 123.741 46.5964 123.89 47.1519C124.04 47.7074 125.492 48.6687 126.902 48.6687C127.295 48.7122 127.693 48.6634 128.064 48.5261C128.435 48.3889 128.769 48.1671 129.039 47.8782C129.379 47.4719 129.622 46.9929 129.747 46.478C129.874 45.9631 129.879 45.4263 129.765 44.9088" fill="#392820"/>
</svg>
